<svg width="121" height="31" viewBox="0 0 121 31" fill="none" xmlns="http://www.w3.org/2000/svg">
<path d="M4.76344 12.45H14.8434V16.35H4.76344V12.45ZM5.12344 24H0.263438V3H16.1334V6.9H5.12344V24ZM19.0936 24V1.74H23.7736V24H19.0936ZM38.017 24V20.85L37.717 20.16V14.52C37.717 13.52 37.407 12.74 36.787 12.18C36.187 11.62 35.257 11.34 33.997 11.34C33.137 11.34 32.287 11.48 31.447 11.76C30.627 12.02 29.927 12.38 29.347 12.84L27.667 9.57C28.547 8.95 29.607 8.47 30.847 8.13C32.087 7.79 33.347 7.62 34.627 7.62C37.087 7.62 38.997 8.2 40.357 9.36C41.717 10.52 42.397 12.33 42.397 14.79V24H38.017ZM33.097 24.24C31.837 24.24 30.757 24.03 29.857 23.61C28.957 23.17 28.267 22.58 27.787 21.84C27.307 21.1 27.067 20.27 27.067 19.35C27.067 18.39 27.297 17.55 27.757 16.83C28.237 16.11 28.987 15.55 30.007 15.15C31.027 14.73 32.357 14.52 33.997 14.52H38.287V17.25H34.507C33.407 17.25 32.647 17.43 32.227 17.79C31.827 18.15 31.627 18.6 31.627 19.14C31.627 19.74 31.857 20.22 32.317 20.58C32.797 20.92 33.447 21.09 34.267 21.09C35.047 21.09 35.747 20.91 36.367 20.55C36.987 20.17 37.437 19.62 37.717 18.9L38.437 21.06C38.097 22.1 37.477 22.89 36.577 23.43C35.677 23.97 34.517 24.24 33.097 24.24ZM52.0627 24.24C50.6827 24.24 49.3527 24.08 48.0727 23.76C46.8127 23.42 45.8127 23 45.0727 22.5L46.6327 19.14C47.3727 19.6 48.2427 19.98 49.2427 20.28C50.2627 20.56 51.2627 20.7 52.2427 20.7C53.3227 20.7 54.0827 20.57 54.5227 20.31C54.9827 20.05 55.2127 19.69 55.2127 19.23C55.2127 18.85 55.0327 18.57 54.6727 18.39C54.3327 18.19 53.8727 18.04 53.2927 17.94C52.7127 17.84 52.0727 17.74 51.3727 17.64C50.6927 17.54 50.0027 17.41 49.3027 17.25C48.6027 17.07 47.9627 16.81 47.3827 16.47C46.8027 16.13 46.3327 15.67 45.9727 15.09C45.6327 14.51 45.4627 13.76 45.4627 12.84C45.4627 11.82 45.7527 10.92 46.3327 10.14C46.9327 9.36 47.7927 8.75 48.9127 8.31C50.0327 7.85 51.3727 7.62 52.9327 7.62C54.0327 7.62 55.1527 7.74 56.2927 7.98C57.4327 8.22 58.3827 8.57 59.1427 9.03L57.5827 12.36C56.8027 11.9 56.0127 11.59 55.2127 11.43C54.4327 11.25 53.6727 11.16 52.9327 11.16C51.8927 11.16 51.1327 11.3 50.6527 11.58C50.1727 11.86 49.9327 12.22 49.9327 12.66C49.9327 13.06 50.1027 13.36 50.4427 13.56C50.8027 13.76 51.2727 13.92 51.8527 14.04C52.4327 14.16 53.0627 14.27 53.7427 14.37C54.4427 14.45 55.1427 14.58 55.8427 14.76C56.5427 14.94 57.1727 15.2 57.7327 15.54C58.3127 15.86 58.7827 16.31 59.1427 16.89C59.5027 17.45 59.6827 18.19 59.6827 19.11C59.6827 20.11 59.3827 21 58.7827 21.78C58.1827 22.54 57.3127 23.14 56.1727 23.58C55.0527 24.02 53.6827 24.24 52.0627 24.24ZM72.3802 7.62C73.6602 7.62 74.8002 7.88 75.8002 8.4C76.8202 8.9 77.6202 9.68 78.2002 10.74C78.7802 11.78 79.0702 13.12 79.0702 14.76V24H74.3902V15.48C74.3902 14.18 74.1002 13.22 73.5202 12.6C72.9602 11.98 72.1602 11.67 71.1202 11.67C70.3802 11.67 69.7102 11.83 69.1102 12.15C68.5302 12.45 68.0702 12.92 67.7302 13.56C67.4102 14.2 67.2502 15.02 67.2502 16.02V24H62.5702V1.74H67.2502V12.33L66.2002 10.98C66.7802 9.9 67.6102 9.07 68.6902 8.49C69.7702 7.91 71.0002 7.62 72.3802 7.62ZM83.3123 24V7.86H87.9923V24H83.3123ZM85.6523 5.61C84.7923 5.61 84.0923 5.36 83.5523 4.86C83.0123 4.36 82.7423 3.74 82.7423 3C82.7423 2.26 83.0123 1.64 83.5523 1.14C84.0923 0.639999 84.7923 0.389998 85.6523 0.389998C86.5123 0.389998 87.2123 0.629999 87.7523 1.11C88.2923 1.57 88.5623 2.17 88.5623 2.91C88.5623 3.69 88.2923 4.34 87.7523 4.86C87.2323 5.36 86.5323 5.61 85.6523 5.61ZM92.9058 24V7.5C92.9058 5.68 93.4458 4.23 94.5258 3.15C95.6058 2.05 97.1458 1.5 99.1458 1.5C99.8258 1.5 100.476 1.57 101.096 1.71C101.736 1.85 102.276 2.07 102.716 2.37L101.486 5.76C101.226 5.58 100.936 5.44 100.616 5.34C100.296 5.24 99.9558 5.19 99.5958 5.19C98.9158 5.19 98.3858 5.39 98.0058 5.79C97.6458 6.17 97.4658 6.75 97.4658 7.53V9.03L97.5858 11.04V24H92.9058ZM90.4158 11.82V8.22H101.606V11.82H90.4158ZM106.27 30.06C105.43 30.06 104.6 29.93 103.78 29.67C102.96 29.41 102.29 29.05 101.77 28.59L103.48 25.26C103.84 25.58 104.25 25.83 104.71 26.01C105.19 26.19 105.66 26.28 106.12 26.28C106.78 26.28 107.3 26.12 107.68 25.8C108.08 25.5 108.44 24.99 108.76 24.27L109.6 22.29L109.96 21.78L115.75 7.86H120.25L112.96 24.99C112.44 26.29 111.84 27.31 111.16 28.05C110.5 28.79 109.76 29.31 108.94 29.61C108.14 29.91 107.25 30.06 106.27 30.06ZM109.03 24.63L101.83 7.86H106.66L112.24 21.36L109.03 24.63Z" fill="url(#paint0_linear_228_446)"/>
<defs>
<linearGradient id="paint0_linear_228_446" x1="54" y1="-8" x2="54" y2="37" gradientUnits="userSpaceOnUse">
<stop stop-color="#48388E"/>
<stop offset="1" stop-color="#DAAAD6"/>
</linearGradient>
</defs>
</svg>
