<svg width="32" height="32" viewBox="0 0 32 32" fill="none" xmlns="http://www.w3.org/2000/svg">
<path d="M24.9988 12.9464V12.007C24.9988 6.84863 20.9699 2.66699 16 2.66699C11.0301 2.66699 7.00116 6.84863 7.00116 12.007V12.9464C7.00116 14.0739 6.67963 15.1761 6.07707 16.1142L4.60048 18.413C3.25176 20.5127 4.2814 23.3669 6.62715 24.0309C12.7637 25.7679 19.2364 25.7679 25.3728 24.0309C27.7187 23.3669 28.7483 20.5127 27.3995 18.413L25.9229 16.1142C25.3204 15.1761 24.9988 14.0739 24.9988 12.9464Z" stroke="#EEF1FD" stroke-width="2"/>
<path d="M10 25.333C10.8734 27.6634 13.2299 29.333 16 29.333C18.77 29.333 21.1267 27.6634 22 25.333" stroke="#EEF1FD" stroke-width="2" stroke-linecap="round"/>
</svg>
